<svg width="568" height="447" viewBox="0 0 568 447" fill="none" xmlns="http://www.w3.org/2000/svg">
<g filter="url(#filter0_i_22_1339)">
<path fill-rule="evenodd" clip-rule="evenodd" d="M269.143 1.41062C238.105 -2.8239 206.915 8.03494 185.023 30.6972C174.514 41.5758 166.703 54.4758 158.416 68.1619C149.44 82.9865 139.906 98.7335 125.779 113.833C114.214 126.194 104.1 132.159 93.9398 136.948C96.1065 136.746 98.3177 136.645 100.573 136.645C111.532 136.645 121.466 139.058 130.374 143.885C139.283 148.671 146.359 155.751 151.602 165.124C156.582 173.991 159.197 184.801 159.446 197.556C160.262 195.042 161.27 192.648 162.47 190.372C166.215 183.232 171.596 177.688 178.612 173.739C185.629 169.751 194.065 167.756 203.92 167.756C213.774 167.756 222.21 169.751 229.227 173.739C236.243 177.688 241.624 183.232 245.369 190.372C247.029 193.519 248.321 196.894 249.245 200.496V168.953H280.229V186.423H281.175C283.146 180.6 286.615 176.033 291.582 172.722C296.588 169.412 302.422 167.756 309.084 167.756C315.509 167.756 321.087 169.252 325.817 172.244C330.587 175.195 334.273 179.264 336.875 184.449C339.516 189.634 340.816 195.557 340.777 202.218V260.851H308.138V209.158C308.177 204.611 307.034 201.041 304.708 198.449C302.422 195.856 299.229 194.56 295.129 194.56C292.449 194.56 290.104 195.158 288.093 196.355C286.122 197.512 284.605 199.187 283.54 201.381C282.476 203.534 281.924 206.127 281.885 209.158V260.851H249.245V229.805C248.321 233.417 247.029 236.805 245.369 239.97C241.624 247.07 236.243 252.614 229.227 256.603C222.21 260.552 213.774 262.526 203.92 262.526C194.065 262.526 185.629 260.552 178.612 256.603C171.596 252.614 166.215 247.07 162.47 239.97C159.426 234.166 157.619 227.61 157.049 220.303C155.754 225.328 153.938 229.93 151.602 234.107C146.359 243.44 139.283 250.52 130.374 255.347C121.466 260.133 111.532 262.526 100.573 262.526C89.5359 262.526 79.5629 260.113 70.6541 255.287C61.7847 250.421 54.7287 243.321 49.4859 233.987C44.2826 224.614 41.6809 213.147 41.6809 199.586C41.6809 185.945 44.2826 174.457 49.4859 165.124C50.6903 162.971 51.9905 160.938 53.3863 159.027C48.4037 162.919 43.1227 167.638 37.4496 173.51C-0.110524 212.392 -9.53566 261.415 13.0321 303.089C22.8455 321.21 38.4245 326.839 54.9214 332.8C67.7469 337.435 81.1272 342.269 92.7844 353.331C102.922 362.951 108.506 372.993 113.955 382.792C120.339 394.273 126.537 405.42 139.655 415.162L140.34 415.67C169.352 437.218 193.088 454.848 229.123 442.303C246.73 436.173 262.717 426.764 279.709 416.764C297.765 406.138 316.956 394.844 340.431 386.107C371.057 374.709 401.524 369.764 428.785 365.339C449.782 361.931 468.877 358.832 484.678 353.331C520.996 340.687 554.885 321.951 559.026 283.315C560.478 269.764 559.825 259.734 558.398 251.059C558.004 252.261 557.468 253.411 556.789 254.509C555.252 257.022 553.242 259.036 550.758 260.552C548.275 262.027 545.574 262.765 542.657 262.765C538.085 262.765 534.163 261.15 530.891 257.919C527.658 254.649 526.062 250.68 526.101 246.013C526.062 241.466 527.658 237.577 530.891 234.346C534.163 231.116 538.085 229.5 542.657 229.5C546.994 229.5 550.817 231.116 554.128 234.346C554.43 234.637 554.717 234.933 554.992 235.234C552.748 225.842 550.639 216.373 550.966 203.087C551.364 186.889 553.663 179.3 556.587 169.65C559.704 159.363 563.53 146.736 566.519 118.847C572.312 64.7934 532.754 37.3749 479.502 30.1097C451.106 26.2357 434.446 30.0305 418.806 33.593C405.116 36.7113 392.207 39.6516 372.894 37.1144C349.954 34.1009 330.558 25.1413 312.672 16.8792C297.489 9.86571 283.394 3.35484 269.143 1.41062ZM122.747 181.039C124.678 186.064 125.644 192.247 125.644 199.586C125.644 206.925 124.678 213.127 122.747 218.193C120.855 223.218 118.036 227.047 114.291 229.68C110.586 232.272 106.013 233.569 100.573 233.569C95.1335 233.569 90.5411 232.272 86.7963 229.68C83.0909 227.047 80.2724 223.218 78.3409 218.193C76.4487 213.127 75.5027 206.925 75.5027 199.586C75.5027 192.247 76.4487 186.064 78.3409 181.039C80.2724 175.973 83.0909 172.144 86.7963 169.551C90.5411 166.919 95.1335 165.603 100.573 165.603C106.013 165.603 110.586 166.919 114.291 169.551C118.036 172.144 120.855 175.973 122.747 181.039ZM211.311 235.304C209.3 237.178 206.915 238.116 204.156 238.116C201.239 238.116 198.736 237.178 196.647 235.304C194.557 233.429 192.961 230.757 191.857 227.287C190.753 223.816 190.202 219.688 190.202 214.902C190.202 210.076 190.753 205.947 191.857 202.517C192.961 199.047 194.557 196.375 196.647 194.5C198.736 192.625 201.239 191.688 204.156 191.688C206.915 191.688 209.3 192.625 211.311 194.5C213.321 196.375 214.878 199.047 215.982 202.517C217.086 205.947 217.637 210.076 217.637 214.902C217.637 219.688 217.086 223.816 215.982 227.287C214.878 230.757 213.321 233.429 211.311 235.304ZM396.764 168.953H380.456V146.936H347.817V168.953V194.081V233.09C347.738 239.512 348.98 244.856 351.542 249.124C354.104 253.392 357.928 256.523 363.013 258.517C368.098 260.472 369.345 260.851 373.31 260.851H381.107H388.177V242.663H387.185H386.606C385.186 242.663 384.024 242.463 383.117 242.064C382.21 241.626 381.54 240.987 381.107 240.15C380.673 239.272 380.456 238.195 380.456 236.919V194.081H396.764H405.977H435.08V194.56L395.345 242.663V260.851H475.051V235.723H437.445V235.244L473.632 189.056V168.953H415.888H396.764ZM509.808 168.953H478.115V260.851H510.754V212.987C510.754 209.477 511.483 206.426 512.942 203.833C514.4 201.201 516.391 199.167 518.914 197.731C521.476 196.255 524.354 195.517 527.547 195.517C529.242 195.517 531.272 195.657 533.637 195.936C536.002 196.215 537.993 196.634 539.609 197.192V169.013C538.308 168.614 536.948 168.315 535.529 168.115C534.149 167.876 532.75 167.756 531.331 167.756C526.482 167.756 522.245 169.252 518.618 172.244C515.031 175.235 512.409 179.962 510.754 186.423H509.808V168.953ZM118.551 282.275H113.24V307.613C113.24 308.974 113.033 310.126 112.619 311.068C112.205 312.011 111.601 312.726 110.808 313.215C110.026 313.692 109.072 313.93 107.945 313.93C106.91 313.93 105.991 313.732 105.186 313.337C104.392 312.93 103.766 312.365 103.306 311.644C102.858 310.923 102.633 310.068 102.633 309.079H97.3388C97.3388 311.092 97.793 312.802 98.7012 314.209C99.621 315.605 100.868 316.67 102.444 317.403C104.03 318.136 105.818 318.502 107.807 318.502C109.969 318.502 111.854 318.077 113.464 317.228C115.073 316.367 116.321 315.122 117.206 313.494C118.103 311.865 118.551 309.905 118.551 307.613V282.275ZM142.658 291.664C142.474 290.012 141.715 288.732 140.381 287.825C139.047 286.906 137.369 286.446 135.345 286.446C133.897 286.446 132.643 286.679 131.586 287.144C130.528 287.598 129.706 288.226 129.119 289.029C128.545 289.82 128.257 290.721 128.257 291.733C128.257 292.583 128.453 293.316 128.844 293.932C129.246 294.549 129.769 295.066 130.413 295.485C131.068 295.892 131.77 296.236 132.517 296.515C133.264 296.782 133.983 297.003 134.673 297.178L138.122 298.085C139.249 298.365 140.404 298.743 141.588 299.22C142.773 299.697 143.87 300.325 144.882 301.104C145.894 301.884 146.71 302.849 147.331 304.001C147.964 305.153 148.28 306.531 148.28 308.137C148.28 310.161 147.762 311.958 146.728 313.529C145.704 315.099 144.215 316.338 142.261 317.246C140.318 318.153 137.967 318.607 135.207 318.607C132.563 318.607 130.275 318.182 128.343 317.333C126.412 316.484 124.9 315.28 123.808 313.721C122.715 312.15 122.112 310.289 121.997 308.137H127.343C127.447 309.428 127.861 310.504 128.585 311.365C129.321 312.214 130.258 312.848 131.396 313.267C132.546 313.674 133.805 313.878 135.173 313.878C136.679 313.878 138.018 313.639 139.191 313.162C140.375 312.674 141.307 311.999 141.985 311.138C142.663 310.266 143.002 309.248 143.002 308.084C143.002 307.026 142.704 306.159 142.106 305.484C141.519 304.809 140.72 304.251 139.708 303.809C138.708 303.367 137.576 302.977 136.311 302.64L132.138 301.488C129.309 300.709 127.067 299.563 125.412 298.05C123.767 296.538 122.945 294.537 122.945 292.048C122.945 289.988 123.497 288.191 124.601 286.655C125.705 285.12 127.199 283.927 129.085 283.078C130.971 282.217 133.098 281.787 135.466 281.787C137.857 281.787 139.967 282.211 141.795 283.061C143.635 283.91 145.083 285.079 146.141 286.568C147.199 288.046 147.751 289.744 147.797 291.664H142.658ZM161.673 318.013H173.107C176.694 318.013 179.752 317.298 182.281 315.867C184.811 314.424 186.742 312.365 188.076 309.69C189.421 307.014 190.094 303.815 190.094 300.092C190.094 296.381 189.427 293.199 188.093 290.547C186.771 287.883 184.868 285.841 182.385 284.422C179.902 282.991 176.929 282.275 173.469 282.275H161.673V318.013ZM172.813 313.302H167.002V286.987H173.141C175.717 286.987 177.872 287.493 179.608 288.505C181.344 289.517 182.649 291.001 183.523 292.955C184.408 294.909 184.851 297.288 184.851 300.092C184.851 302.919 184.408 305.315 183.523 307.282C182.638 309.236 181.304 310.731 179.522 311.766C177.74 312.79 175.504 313.302 172.813 313.302ZM193.393 318.013V291.21H198.377V295.468H198.653C199.136 294.025 199.987 292.891 201.205 292.065C202.435 291.227 203.827 290.809 205.379 290.809C205.701 290.809 206.08 290.82 206.517 290.843C206.965 290.867 207.316 290.896 207.569 290.931V295.921C207.362 295.863 206.994 295.799 206.465 295.73C205.936 295.648 205.408 295.607 204.879 295.607C203.66 295.607 202.573 295.869 201.619 296.393C200.676 296.904 199.929 297.62 199.377 298.539C198.825 299.446 198.549 300.482 198.549 301.645V318.013H193.393ZM225.898 291.21V306.898C225.909 308.422 225.593 309.678 224.949 310.667C224.317 311.656 223.518 312.394 222.552 312.883C221.598 313.372 220.638 313.616 219.672 313.616C218.074 313.616 216.775 313.075 215.774 311.993C214.774 310.911 214.274 309.457 214.274 307.631V291.21H209.118V308.259C209.118 310.469 209.485 312.325 210.221 313.825C210.969 315.326 211.992 316.46 213.291 317.228C214.602 317.984 216.108 318.362 217.809 318.362C219.799 318.362 221.46 317.891 222.794 316.949C224.139 315.995 225.116 314.803 225.725 313.372H226.001V318.013H231.072V291.21H225.898ZM235.086 318.013V291.21H240.036V295.572H240.364C240.915 294.095 241.818 292.943 243.071 292.117C244.324 291.28 245.825 290.861 247.572 290.861C249.343 290.861 250.826 291.28 252.022 292.117C253.229 292.955 254.12 294.107 254.695 295.572H254.971C255.603 294.142 256.609 293.001 257.989 292.152C259.369 291.291 261.013 290.861 262.921 290.861C265.324 290.861 267.284 291.623 268.802 293.147C270.331 294.671 271.096 296.968 271.096 300.04V318.013H265.939V300.528C265.939 298.714 265.451 297.399 264.473 296.585C263.496 295.77 262.329 295.363 260.972 295.363C259.294 295.363 257.989 295.887 257.058 296.934C256.126 297.969 255.661 299.301 255.661 300.93V318.013H250.521V300.197C250.521 298.743 250.073 297.573 249.176 296.689C248.279 295.805 247.112 295.363 245.675 295.363C244.698 295.363 243.796 295.625 242.968 296.148C242.151 296.66 241.49 297.376 240.984 298.295C240.49 299.214 240.243 300.278 240.243 301.488V318.013H235.086ZM302.433 287.825C303.767 288.732 304.526 290.012 304.71 291.664H309.849C309.803 289.744 309.251 288.046 308.193 286.568C307.135 285.079 305.687 283.91 303.847 283.061C302.019 282.211 299.909 281.787 297.518 281.787C295.15 281.787 293.023 282.217 291.137 283.078C289.251 283.927 287.757 285.12 286.653 286.655C285.549 288.191 284.997 289.988 284.997 292.048C284.997 294.537 285.82 296.538 287.464 298.05C289.119 299.563 291.361 300.709 294.19 301.488L298.363 302.64C299.628 302.977 300.76 303.367 301.761 303.809C302.772 304.251 303.571 304.809 304.158 305.484C304.756 306.159 305.054 307.026 305.054 308.084C305.054 309.248 304.715 310.266 304.037 311.138C303.359 311.999 302.427 312.674 301.243 313.162C300.07 313.639 298.731 313.878 297.225 313.878C295.857 313.878 294.598 313.674 293.448 313.267C292.31 312.848 291.373 312.214 290.637 311.365C289.913 310.504 289.499 309.428 289.395 308.137H284.049C284.164 310.289 284.768 312.15 285.86 313.721C286.952 315.28 288.464 316.484 290.395 317.333C292.327 318.182 294.615 318.607 297.259 318.607C300.019 318.607 302.37 318.153 304.313 317.246C306.267 316.338 307.756 315.099 308.78 313.529C309.814 311.958 310.332 310.161 310.332 308.137C310.332 306.531 310.016 305.153 309.383 304.001C308.762 302.849 307.946 301.884 306.934 301.104C305.923 300.325 304.825 299.697 303.64 299.22C302.456 298.743 301.301 298.365 300.174 298.085L296.725 297.178C296.035 297.003 295.316 296.782 294.569 296.515C293.822 296.236 293.12 295.892 292.465 295.485C291.821 295.066 291.298 294.549 290.896 293.932C290.505 293.316 290.309 292.583 290.309 291.733C290.309 290.721 290.597 289.82 291.172 289.029C291.758 288.226 292.58 287.598 293.638 287.144C294.695 286.679 295.949 286.446 297.397 286.446C299.421 286.446 301.099 286.906 302.433 287.825ZM324.789 318.554C322.179 318.554 319.931 317.99 318.046 316.862C316.172 315.722 314.723 314.122 313.7 312.063C312.688 309.992 312.182 307.567 312.182 304.786C312.182 302.041 312.688 299.621 313.7 297.527C314.723 295.433 316.149 293.798 317.977 292.623C319.816 291.448 321.966 290.861 324.427 290.861C325.921 290.861 327.37 291.111 328.773 291.611C330.175 292.112 331.434 292.897 332.549 293.967C333.665 295.037 334.544 296.428 335.188 298.138C335.832 299.836 336.154 301.901 336.154 304.332V306.182H317.326C317.366 307.816 317.675 309.218 318.253 310.388C318.885 311.644 319.765 312.604 320.891 313.267C322.018 313.918 323.334 314.244 324.841 314.244C325.818 314.244 326.709 314.105 327.514 313.825C328.319 313.535 329.014 313.104 329.6 312.534C330.187 311.964 330.635 311.26 330.946 310.423L335.826 311.313C335.435 312.767 334.734 314.041 333.722 315.134C332.722 316.216 331.463 317.059 329.945 317.664C328.439 318.258 326.72 318.554 324.789 318.554ZM318.184 299.045C317.679 300.045 317.396 301.121 317.334 302.273H331.101C331.101 300.901 330.825 299.685 330.273 298.626C329.721 297.556 328.945 296.713 327.945 296.096C326.956 295.479 325.795 295.171 324.461 295.171C323.013 295.171 321.748 295.532 320.667 296.253C319.598 296.963 318.77 297.893 318.184 299.045ZM356.845 313.843V328.065H362.002V291.21H356.966V295.555H356.535C356.225 294.997 355.788 294.351 355.224 293.618C354.672 292.885 353.891 292.245 352.879 291.699C351.879 291.14 350.556 290.861 348.912 290.861C346.785 290.861 344.883 291.408 343.204 292.501C341.525 293.595 340.203 295.171 339.237 297.23C338.283 299.289 337.806 301.767 337.806 304.664C337.806 307.561 338.277 310.044 339.22 312.115C340.174 314.174 341.485 315.762 343.152 316.879C344.831 317.984 346.739 318.537 348.878 318.537C350.487 318.537 351.798 318.264 352.81 317.717C353.822 317.17 354.615 316.53 355.19 315.797C355.776 315.064 356.225 314.413 356.535 313.843H356.845ZM353.776 312.901C352.752 313.692 351.499 314.087 350.016 314.087C348.487 314.087 347.199 313.674 346.153 312.848C345.118 312.011 344.336 310.876 343.808 309.445C343.279 308.014 343.014 306.403 343.014 304.612C343.014 302.843 343.273 301.255 343.79 299.848C344.319 298.44 345.101 297.329 346.136 296.515C347.17 295.7 348.464 295.293 350.016 295.293C351.522 295.293 352.787 295.683 353.81 296.462C354.833 297.242 355.609 298.33 356.138 299.726C356.667 301.122 356.932 302.75 356.932 304.612C356.932 306.496 356.661 308.148 356.121 309.568C355.592 310.987 354.81 312.098 353.776 312.901ZM382.801 306.898V291.21H387.975V318.013H382.905V313.372H382.629C382.019 314.803 381.042 315.995 379.697 316.949C378.363 317.891 376.702 318.362 374.713 318.362C373.011 318.362 371.505 317.984 370.195 317.228C368.895 316.46 367.872 315.326 367.125 313.825C366.389 312.325 366.021 310.469 366.021 308.259V291.21H371.178V307.631C371.178 309.457 371.678 310.911 372.678 311.993C373.678 313.075 374.977 313.616 376.576 313.616C377.541 313.616 378.501 313.372 379.456 312.883C380.421 312.394 381.22 311.656 381.853 310.667C382.497 309.678 382.813 308.422 382.801 306.898ZM396.663 316.862C398.549 317.99 400.797 318.554 403.407 318.554C405.338 318.554 407.057 318.258 408.563 317.664C410.081 317.059 411.34 316.216 412.34 315.134C413.352 314.041 414.053 312.767 414.444 311.313L409.563 310.423C409.253 311.26 408.805 311.964 408.218 312.534C407.632 313.104 406.936 313.535 406.131 313.825C405.327 314.105 404.436 314.244 403.458 314.244C401.952 314.244 400.636 313.918 399.509 313.267C398.382 312.604 397.503 311.644 396.87 310.388C396.292 309.218 395.983 307.816 395.943 306.182H414.772V304.332C414.772 301.901 414.45 299.836 413.806 298.138C413.162 296.428 412.282 295.037 411.167 293.967C410.052 292.897 408.793 292.112 407.39 291.611C405.988 291.111 404.539 290.861 403.044 290.861C400.584 290.861 398.434 291.448 396.594 292.623C394.766 293.798 393.341 295.433 392.317 297.527C391.306 299.621 390.8 302.041 390.8 304.786C390.8 307.567 391.306 309.992 392.317 312.063C393.341 314.122 394.789 315.722 396.663 316.862ZM395.952 302.273C396.014 301.121 396.297 300.045 396.801 299.045C397.388 297.893 398.216 296.963 399.285 296.253C400.366 295.532 401.63 295.171 403.079 295.171C404.413 295.171 405.574 295.479 406.563 296.096C407.563 296.713 408.339 297.556 408.891 298.626C409.443 299.685 409.719 300.901 409.719 302.273H395.952ZM422.736 302.099V318.013H417.579V291.21H422.529V295.572H422.856C423.466 294.153 424.42 293.013 425.719 292.152C427.03 291.291 428.68 290.861 430.669 290.861C432.474 290.861 434.055 291.245 435.411 292.013C436.768 292.769 437.82 293.897 438.567 295.398C439.315 296.899 439.688 298.754 439.688 300.965V318.013H434.532V301.593C434.532 299.65 434.032 298.132 433.031 297.038C432.031 295.933 430.657 295.38 428.91 295.38C427.714 295.38 426.65 295.642 425.719 296.166C424.799 296.689 424.069 297.457 423.529 298.469C423 299.47 422.736 300.68 422.736 302.099ZM448.226 316.792C450.077 317.967 452.284 318.554 454.848 318.554C456.941 318.554 458.763 318.165 460.315 317.385C461.879 316.606 463.126 315.535 464.058 314.174C464.989 312.813 465.547 311.266 465.73 309.533H460.712C460.493 310.498 460.108 311.324 459.556 312.011C459.016 312.697 458.343 313.226 457.539 313.599C456.745 313.959 455.86 314.139 454.883 314.139C453.423 314.139 452.152 313.75 451.071 312.97C450.002 312.191 449.174 311.092 448.588 309.672C448.002 308.253 447.708 306.566 447.708 304.612C447.708 302.704 448.007 301.052 448.605 299.656C449.203 298.248 450.037 297.166 451.106 296.41C452.187 295.642 453.446 295.258 454.883 295.258C456.527 295.258 457.838 295.712 458.815 296.619C459.804 297.527 460.436 298.609 460.712 299.865H465.73C465.547 298.062 464.966 296.486 463.989 295.136C463.023 293.787 461.752 292.74 460.177 291.995C458.602 291.239 456.809 290.861 454.797 290.861C452.302 290.861 450.134 291.448 448.295 292.623C446.455 293.798 445.03 295.433 444.018 297.527C443.006 299.609 442.5 302.012 442.5 304.734C442.5 307.421 442.995 309.806 443.983 311.888C444.972 313.971 446.386 315.605 448.226 316.792ZM479.748 318.554C477.138 318.554 474.89 317.99 473.005 316.862C471.131 315.722 469.682 314.122 468.659 312.063C467.647 309.992 467.141 307.567 467.141 304.786C467.141 302.041 467.647 299.621 468.659 297.527C469.682 295.433 471.108 293.798 472.936 292.623C474.775 291.448 476.925 290.861 479.386 290.861C480.88 290.861 482.329 291.111 483.732 291.611C485.134 292.112 486.393 292.897 487.508 293.967C488.624 295.037 489.503 296.428 490.147 298.138C490.791 299.836 491.113 301.901 491.113 304.332V306.182H472.285C472.325 307.816 472.634 309.218 473.212 310.388C473.844 311.644 474.723 312.604 475.85 313.267C476.977 313.918 478.293 314.244 479.8 314.244C480.777 314.244 481.668 314.105 482.473 313.825C483.277 313.535 483.973 313.104 484.559 312.534C485.146 311.964 485.594 311.26 485.905 310.423L490.785 311.313C490.394 312.767 489.693 314.041 488.681 315.134C487.681 316.216 486.422 317.059 484.904 317.664C483.398 318.258 481.679 318.554 479.748 318.554ZM473.143 299.045C472.638 300.045 472.355 301.121 472.293 302.273H486.06C486.06 300.901 485.784 299.685 485.232 298.626C484.68 297.556 483.904 296.713 482.904 296.096C481.915 295.479 480.754 295.171 479.42 295.171C477.971 295.171 476.707 295.532 475.626 296.253C474.557 296.963 473.729 297.893 473.143 299.045ZM498.904 291.21H493.92V318.013H499.077V301.645C499.077 300.482 499.353 299.446 499.905 298.539C500.457 297.62 501.204 296.904 502.147 296.393C503.101 295.869 504.187 295.607 505.406 295.607C505.935 295.607 506.464 295.648 506.993 295.73C507.522 295.799 507.89 295.863 508.096 295.921V290.931C507.844 290.896 507.493 290.867 507.044 290.843C506.608 290.82 506.228 290.809 505.906 290.809C504.354 290.809 502.963 291.227 501.733 292.065C500.514 292.891 499.663 294.025 499.18 295.468H498.904V291.21Z" fill="url(#paint0_linear_22_1339)"/>
</g>
<defs>
<filter id="filter0_i_22_1339" x="0.917725" y="0.510315" width="571.165" height="450.979" filterUnits="userSpaceOnUse" color-interpolation-filters="sRGB">
<feFlood flood-opacity="0" result="BackgroundImageFix"/>
<feBlend mode="normal" in="SourceGraphic" in2="BackgroundImageFix" result="shape"/>
<feColorMatrix in="SourceAlpha" type="matrix" values="0 0 0 0 0 0 0 0 0 0 0 0 0 0 0 0 0 0 127 0" result="hardAlpha"/>
<feOffset dx="5" dy="5"/>
<feGaussianBlur stdDeviation="7.5"/>
<feComposite in2="hardAlpha" operator="arithmetic" k2="-1" k3="1"/>
<feColorMatrix type="matrix" values="0 0 0 0 0 0 0 0 0 0 0 0 0 0 0 0 0 0 0.25 0"/>
<feBlend mode="normal" in2="shape" result="effect1_innerShadow_22_1339"/>
</filter>
<linearGradient id="paint0_linear_22_1339" x1="493.747" y1="33.1103" x2="174.351" y2="448.419" gradientUnits="userSpaceOnUse">
<stop stop-color="#0BA5AA"/>
<stop offset="1" stop-color="#DA0045"/>
</linearGradient>
</defs>
</svg>
